<?xml version="1.0" encoding="UTF-8" standalone="no"?>
<!DOCTYPE svg PUBLIC "-//W3C//DTD SVG 1.1//EN" "http://www.w3.org/Graphics/SVG/1.1/DTD/svg11.dtd">
<svg version="1.1" xmlns="http://www.w3.org/2000/svg" xmlns:xlink="http://www.w3.org/1999/xlink" preserveAspectRatio="xMidYMid meet" viewBox="0 0 640 640" width="640" height="640"><defs><path d="M496.89 392.94L507.23 380.3L517.57 364.22L526.76 344.7L526.76 320L517.57 293.01L507.23 271.18L492.3 251.66L461.28 235.57L426.82 227.53L364.8 221.79L305.07 221.79L253.38 221.79L185.61 227.53L150 235.57L120.14 251.66L102.91 271.18L93.72 293.01L87.97 320L91.42 344.7L98.31 364.22L107.5 380.3L129.32 396.39L162.64 406.72L456.69 406.72L496.89 392.94Z" id="b5wkEdqWB"></path><path d="M385.47 392.94L362.5 392.94L340.68 392.94L318.85 392.94L297.03 390.64L276.35 387.2L254.53 383.75L235 379.16L215.47 373.41L194.8 368.82L175.27 360.78L158.04 348.14L148.85 329.76L148.85 309.09L154.59 287.26L169.53 271.18L187.91 261.99L208.58 256.25L229.26 252.8L249.93 257.4L269.46 264.29L290.14 265.44L313.11 263.14L334.93 259.7L357.91 253.95L378.58 251.66L402.7 250.51L427.97 260.84L442.91 274.63L448.65 294.16L447.5 314.83L433.72 332.06L416.49 345.84L398.11 353.89L378.58 359.63L356.76 363.07L334.93 363.07L313.11 363.07L292.43 360.78L270.61 355.03L249.93 351.59L229.26 346.99L212.03 336.66L199.39 319.43L192.5 297.6L202.84 280.37L223.51 274.63L244.19 275.78L260.27 289.56L261.42 310.24L243.04 319.43L251.08 338.95L272.91 345.84L291.28 355.03L311.96 360.78L333.78 360.78L354.46 358.48L375.14 356.18L399.26 344.7L417.64 335.51L427.97 318.28L429.12 297.6L418.78 280.37L401.55 270.03L380.88 266.59L359.05 268.89L339.53 273.48L317.7 274.63L297.03 273.48L277.5 268.89L257.97 264.29L238.45 256.25L217.77 253.95L197.09 256.25L183.31 271.18L172.97 288.41L168.38 309.09L171.82 330.91L186.76 345.84L201.69 360.78L223.51 367.67L245.34 371.11L266.01 375.71L286.69 378.01L308.51 380.3L328.04 384.9L348.72 386.05L370.54 384.9L393.51 381.45L414.19 376.86L433.72 368.82L452.09 358.48L470.47 349.29L491.15 346.99L508.38 357.33L487.7 356.18L467.03 358.48L448.65 367.67L430.27 376.86L411.89 384.9L392.36 391.79L371.69 395.24" id="e7W4wKqj7L"></path></defs><g><g><g><use xlink:href="#b5wkEdqWB" opacity="1" fill="#e4b559" fill-opacity="1"></use><g><use xlink:href="#b5wkEdqWB" opacity="1" fill-opacity="0" stroke="#000000" stroke-width="3" stroke-opacity="1"></use></g></g><g><use xlink:href="#e7W4wKqj7L" opacity="1" fill="#835600" fill-opacity="1"></use><g><use xlink:href="#e7W4wKqj7L" opacity="1" fill-opacity="0" stroke="#000000" stroke-width="3" stroke-opacity="1"></use></g></g></g></g></svg>