<?xml version="1.0" encoding="UTF-8" standalone="no"?>
<!DOCTYPE svg PUBLIC "-//W3C//DTD SVG 1.1//EN" "http://www.w3.org/Graphics/SVG/1.1/DTD/svg11.dtd">
<svg version="1.1" xmlns="http://www.w3.org/2000/svg" xmlns:xlink="http://www.w3.org/1999/xlink" preserveAspectRatio="xMidYMid meet" viewBox="0 0 640 640" width="640" height="640"><defs><path d="M103.91 256.21L95.86 275.75L85.52 295.29L77.47 314.83L74.02 336.67L77.47 357.36L97.01 351.61L101.61 332.07L109.66 313.68L115.4 292.99L130.34 278.05L131.49 257.36L110.8 255.06" id="eU9p8ucCL"></path><path d="M222.76 250.46L230.8 270L241.15 289.54L249.2 309.08L252.64 330.92L249.2 351.61L229.66 345.86L225.06 326.32L217.01 307.93L211.26 287.24L196.32 272.3L195.17 251.61L215.86 249.31" id="m9pyifsTi"></path><path d="M249.89 349.31L232.64 361.95L218.85 376.9L201.61 388.39L180.92 389.54L176.32 370L191.26 356.21L210.8 350.46L230.34 342.41L251.03 338.97" id="c18c9A2BzN"></path><path d="M126.32 238.97L109.08 228.62L96.44 211.38L89.54 190.69L89.54 168.85L97.59 150.46L112.53 134.37L129.77 122.87L149.31 117.13L172.3 115.98L195.29 118.28L215.98 126.32L232.07 145.86L241.26 166.55L244.71 187.24L235.52 205.63L219.43 219.43L197.59 227.47L175.75 232.07L155.06 234.37L133.22 235.52L112.53 233.22" id="g18qqj2HZh"></path><path d="M160.11 229.77L150.92 248.16L130.23 250.46L104.94 255.06L115.29 275.75L121.03 295.29L127.93 315.98L130.23 337.82L127.93 359.66L115.29 379.2L107.24 401.03L101.49 420.57L110.69 438.97L139.43 441.26L162.41 442.41L191.15 443.56L211.84 443.56L237.13 443.56L257.82 440.11L277.36 435.52L265.86 418.28L253.22 402.18L239.43 386.09L225.63 370L209.54 357.36L208.39 333.22L210.69 311.38L216.44 289.54L230.23 263.1L216.44 248.16L193.45 248.16L172.76 244.71" id="g3dbAPlgMO"></path><path d="M129.2 432.07L129.2 452.76L128.05 473.45L126.9 496.44L129.2 517.13L148.74 512.53L155.63 492.99L155.63 472.3L157.93 451.61L160.23 429.77L140.69 434.37L129.2 432.07Z" id="a4iQHX0sao"></path><path d="M176.32 247.01L161.38 229.77L151.03 247.01L176.32 247.01Z" id="aa8DmKTo1"></path><path d="M224.6 435.98L224.6 456.67L225.75 477.36L226.9 500.34L224.6 521.03L205.06 516.44L198.16 496.9L198.16 476.21L195.86 455.52L193.56 433.68L213.1 438.28L224.6 435.98Z" id="a3eSWQJXs8"></path><path d="M147.59 101.03L126.9 103.33L109.66 114.83L97.01 132.07L86.67 150.46L82.07 171.15L80.92 191.84L82.07 213.68L88.97 233.22L102.76 248.16L123.45 249.31L145.29 245.86L155.63 228.62L136.09 234.37L116.55 229.77L103.91 213.68L98.16 194.14L98.16 173.45L105.06 152.76L118.85 137.82L136.09 126.32L154.48 115.98L144.14 98.74L124.6 103.33" id="aaiTDvrPw"></path><path d="M156.78 115.98L136.09 114.83L134.94 92.99L154.48 87.24L175.17 86.09L194.71 91.84L215.4 92.99L234.94 101.03L252.18 111.38L261.38 129.77L267.13 149.31L269.43 170L268.28 191.84L260.23 211.38L244.14 226.32L224.6 234.37L205.06 241.26L184.37 242.41L165.98 233.22L185.52 227.47L205.06 222.87L223.45 213.68L237.24 198.74L240.69 178.05L236.09 157.36L225.75 138.97L208.51 125.17L188.97 119.43L168.28 117.13" id="b74VV4EvE"></path><path d="M122.3 512.53L142.99 513.68L154.48 496.44L156.78 517.13L146.44 534.37" id="e5RaFEuXJq"></path><path d="M124.6 503.33L116.55 521.72L109.66 541.26L124.6 555.06L144.14 549.31L151.03 529.77" id="cDHtcPU5c"></path><path d="M108.51 542.41L124.6 555.06L144.14 549.31L131.49 533.22L110.8 536.67" id="a6RKqsZdG"></path><path d="M229.66 514.25L208.97 515.4L197.47 498.16L195.17 518.85L205.52 536.09" id="b2XAsuvc0D"></path><path d="M228.62 503.33L236.67 521.72L243.56 541.26L228.62 555.06L209.08 549.31L202.18 529.77" id="aob4Wkq0P"></path><path d="M244.71 543.56L228.62 556.21L209.08 550.46L221.72 534.37L242.41 537.82" id="apcz8FKUY"></path><path d="M77.47 355.06L94.71 367.7L108.51 382.64L125.75 394.14L146.44 395.29L151.03 375.75L136.09 361.95L116.55 356.21L97.01 348.16L76.32 344.71" id="dfgbeyqBF"></path><path d="M171.72 169.43L188.97 159.08L209.66 157.93L225.75 170.57" id="f5z9ayy1v2"></path><path d="M174.02 178.62L193.56 185.52L214.25 185.52L226.9 169.43" id="c4nhz915w"></path><path d="M172.76 169.43L217.59 169.43L217.59 177.47L172.76 177.47L172.76 169.43Z" id="i51ry6yHSO"></path><path d="M212.53 172.59C212.53 179.72 206.35 185.52 198.74 185.52C191.12 185.52 184.94 179.72 184.94 172.59C184.94 165.45 191.12 159.66 198.74 159.66C206.35 159.66 212.53 165.45 212.53 172.59Z" id="aidinQhoi"></path><path d="M206.78 172.3C206.78 167.86 203.18 164.25 198.74 164.25C194.29 164.25 190.69 167.86 190.69 172.3C190.69 176.74 194.29 180.34 198.74 180.34C203.18 180.34 206.78 176.74 206.78 172.3Z" id="i4Uic8CIoF"></path><path d="M216.32 151.61L205.52 145.86L193.91 145.86L180.8 151.61L172.76 159.66" id="hLnD3auiK"></path><path d="M157.36 169.43L140.11 159.08L119.43 157.93L103.33 170.57" id="e296Ie04Ex"></path><path d="M155.06 178.62L135.52 185.52L114.83 185.52L102.18 169.43" id="aI27LXFla"></path><path d="M156.32 169.43L111.49 169.43L111.49 177.47L156.32 177.47L156.32 169.43Z" id="ap5YasjvT"></path><path d="M116.55 172.59C116.55 179.72 122.73 185.52 130.34 185.52C137.96 185.52 144.14 179.72 144.14 172.59C144.14 165.45 137.96 159.66 130.34 159.66C122.73 159.66 116.55 165.45 116.55 172.59Z" id="ebPZ1c6ge"></path><path d="M122.3 172.3C122.3 167.86 125.9 164.25 130.34 164.25C134.79 164.25 138.39 167.86 138.39 172.3C138.39 176.74 134.79 180.34 130.34 180.34C125.9 180.34 122.3 176.74 122.3 172.3Z" id="esMPpmhSP"></path><path d="M112.76 151.61L123.56 145.86L135.17 145.86L148.28 151.61L156.32 159.66" id="bfbj6HDIT"></path><path d="M184.94 212.53L174.02 218.28L163.68 218.28L151.03 218.28C144.71 215.4 140.5 213.49 138.39 212.53" id="b7NTi0Rpu"></path></defs><g><g><g class="armUpperLeft" ><use xlink:href="#eU9p8ucCL" opacity="1" fill="#fcc7c7" fill-opacity="1"></use><g ><use xlink:href="#eU9p8ucCL" opacity="1" fill-opacity="0" stroke="#080808" stroke-width="1" stroke-opacity="1"></use></g></g><g><use xlink:href="#m9pyifsTi" opacity="1" fill="#fcc7c7" fill-opacity="1"></use><g><use xlink:href="#m9pyifsTi" opacity="1" fill-opacity="0" stroke="#080808" stroke-width="1" stroke-opacity="1"></use></g></g><g><use xlink:href="#c18c9A2BzN" opacity="1" fill="#fcc7c7" fill-opacity="1"></use><g><use xlink:href="#c18c9A2BzN" opacity="1" fill-opacity="0" stroke="#090909" stroke-width="1" stroke-opacity="1"></use></g></g><g><use xlink:href="#g18qqj2HZh" opacity="1" fill="#fec7c7" fill-opacity="1"></use><g><use xlink:href="#g18qqj2HZh" opacity="1" fill-opacity="0" stroke="#000000" stroke-width="0" stroke-opacity="1"></use></g></g><g><use xlink:href="#g3dbAPlgMO" opacity="1" fill="#810b0b" fill-opacity="1"></use><g><use xlink:href="#g3dbAPlgMO" opacity="1" fill-opacity="0" stroke="#08080c" stroke-width="1" stroke-opacity="1"></use></g></g><g><use xlink:href="#a4iQHX0sao" opacity="1" fill="#fec7c7" fill-opacity="1"></use><g><use xlink:href="#a4iQHX0sao" opacity="1" fill-opacity="0" stroke="#101811" stroke-width="1" stroke-opacity="1"></use></g></g><g><use xlink:href="#aa8DmKTo1" opacity="1" fill="#fec7c7" fill-opacity="1"></use><g><use xlink:href="#aa8DmKTo1" opacity="1" fill-opacity="0" stroke="#000000" stroke-width="1" stroke-opacity="1"></use></g></g><g><use xlink:href="#a3eSWQJXs8" opacity="1" fill="#fec7c7" fill-opacity="1"></use><g><use xlink:href="#a3eSWQJXs8" opacity="1" fill-opacity="0" stroke="#000000" stroke-width="1" stroke-opacity="1"></use></g></g><g><use xlink:href="#aaiTDvrPw" opacity="1" fill="#5a3c27" fill-opacity="1"></use><g><use xlink:href="#aaiTDvrPw" opacity="1" fill-opacity="0" stroke="#000000" stroke-width="1" stroke-opacity="1"></use></g></g><g><use xlink:href="#b74VV4EvE" opacity="1" fill="#5a3c27" fill-opacity="1"></use><g><use xlink:href="#b74VV4EvE" opacity="1" fill-opacity="0" stroke="#090604" stroke-width="1" stroke-opacity="1"></use></g></g><g><use xlink:href="#e5RaFEuXJq" opacity="1" fill="#080606" fill-opacity="1"></use><g><use xlink:href="#e5RaFEuXJq" opacity="1" fill-opacity="0" stroke="#0c0c0c" stroke-width="1" stroke-opacity="1"></use></g></g><g><use xlink:href="#cDHtcPU5c" opacity="1" fill="#120e0e" fill-opacity="1"></use><g><use xlink:href="#cDHtcPU5c" opacity="1" fill-opacity="0" stroke="#121a12" stroke-width="1" stroke-opacity="1"></use></g></g><g><use xlink:href="#a6RKqsZdG" opacity="1" fill="#f3f3f3" fill-opacity="1"></use><g><use xlink:href="#a6RKqsZdG" opacity="1" fill-opacity="0" stroke="#111212" stroke-width="1" stroke-opacity="1"></use></g></g><g><use xlink:href="#b2XAsuvc0D" opacity="1" fill="#080606" fill-opacity="1"></use><g><use xlink:href="#b2XAsuvc0D" opacity="1" fill-opacity="0" stroke="#0c0c0c" stroke-width="1" stroke-opacity="1"></use></g></g><g><use xlink:href="#aob4Wkq0P" opacity="1" fill="#120e0e" fill-opacity="1"></use><g><use xlink:href="#aob4Wkq0P" opacity="1" fill-opacity="0" stroke="#121a12" stroke-width="1" stroke-opacity="1"></use></g></g><g><use xlink:href="#apcz8FKUY" opacity="1" fill="#f3f3f3" fill-opacity="1"></use><g><use xlink:href="#apcz8FKUY" opacity="1" fill-opacity="0" stroke="#111212" stroke-width="1" stroke-opacity="1"></use></g></g><g class="armBelowLeft"><use xlink:href="#dfgbeyqBF" opacity="1" fill="#fcc7c7" fill-opacity="1"></use><g><use xlink:href="#dfgbeyqBF" opacity="1" fill-opacity="0" stroke="#090909" stroke-width="1" stroke-opacity="1"></use></g></g><g><use xlink:href="#f5z9ayy1v2" opacity="1" fill="#f5f4f4" fill-opacity="1"></use><g><use xlink:href="#f5z9ayy1v2" opacity="1" fill-opacity="0" stroke="#090909" stroke-width="1" stroke-opacity="1"></use></g></g><g><use xlink:href="#c4nhz915w" opacity="1" fill="#f5f5f5" fill-opacity="1"></use><g><use xlink:href="#c4nhz915w" opacity="1" fill-opacity="0" stroke="#090909" stroke-width="1" stroke-opacity="1"></use></g></g><g><use xlink:href="#i51ry6yHSO" opacity="1" fill="#f5f5f5" fill-opacity="1"></use></g><g><use xlink:href="#aidinQhoi" opacity="1" fill="#32a6ec" fill-opacity="1"></use><g><use xlink:href="#aidinQhoi" opacity="1" fill-opacity="0" stroke="#000000" stroke-width="1" stroke-opacity="1"></use></g></g><g><use xlink:href="#i4Uic8CIoF" opacity="1" fill="#000000" fill-opacity="1"></use></g><g><g><use xlink:href="#hLnD3auiK" opacity="1" fill-opacity="0" stroke="#000000" stroke-width="1" stroke-opacity="1"></use></g></g><g><use xlink:href="#e296Ie04Ex" opacity="1" fill="#f5f4f4" fill-opacity="1"></use><g><use xlink:href="#e296Ie04Ex" opacity="1" fill-opacity="0" stroke="#090909" stroke-width="1" stroke-opacity="1"></use></g></g><g><use xlink:href="#aI27LXFla" opacity="1" fill="#f5f5f5" fill-opacity="1"></use><g><use xlink:href="#aI27LXFla" opacity="1" fill-opacity="0" stroke="#090909" stroke-width="1" stroke-opacity="1"></use></g></g><g><use xlink:href="#ap5YasjvT" opacity="1" fill="#f5f5f5" fill-opacity="1"></use></g><g><use xlink:href="#ebPZ1c6ge" opacity="1" fill="#32a6ec" fill-opacity="1"></use><g><use xlink:href="#ebPZ1c6ge" opacity="1" fill-opacity="0" stroke="#000000" stroke-width="1" stroke-opacity="1"></use></g></g><g><use xlink:href="#esMPpmhSP" opacity="1" fill="#000000" fill-opacity="1"></use></g><g><g><use xlink:href="#bfbj6HDIT" opacity="1" fill-opacity="0" stroke="#000000" stroke-width="1" stroke-opacity="1"></use></g></g><g><g><use xlink:href="#b7NTi0Rpu" opacity="1" fill-opacity="0" stroke="#000000" stroke-width="1" stroke-opacity="1"></use></g></g></g></g></svg>